# xmcd
#
# Track frame offsets:
#	225
#	15554
#	34069
#	53254
#	67201
#	84696
#	98640
#	118459
#	136102
#	155281
#	173987
#	195825
#
# Disc length: 2810 seconds
# Revision: 0
# Processed by: cddbd v1.5.2PL0 Copyright (c) Steve Scherf et al.
# Submitted via: dBpowerAMP V12.0
#
DISCID=950af70c
DTITLE=Chich - I'm Alive
DYEAR=2014
DGENRE=Soul
TTITLE0=Lover
TTITLE1=Unrequited
TTITLE2=Coming Home
TTITLE3=Mistress
TTITLE4=I'm Alive
TTITLE5=Chasing the Moon
TTITLE6=Sorry
TTITLE7=Is It Gone?
TTITLE8=Denim Denim
TTITLE9=Revolutionaries
TTITLE10=Joy
TTITLE11=Lover (Strings Version)
EXTD=
EXTT0=
EXTT1=
EXTT2=
EXTT3=
EXTT4=
EXTT5=
EXTT6=
EXTT7=
EXTT8=
EXTT9=
EXTT10=
EXTT11=
PLAYORDER=
